<svg xmlns="http://www.w3.org/2000/svg" viewBox="0 0 1024 1024">
  <path d="M391.1 595.1c5.8 5.9 11.3 12.1 16.4 18.7-2.6-3.4-5.2-6.7-7.8-10.1 9.8 12.8 17.8 26.7 24.1 41.6-1.7-4-3.4-8-5-11.9 6.4 15.4 10.7 31.5 12.9 48-.6-4.4-1.2-8.9-1.8-13.3 2.1 16.4 2.1 33 0 49.4.6-4.4 1.2-8.9 1.8-13.3-2.2 16.5-6.6 32.6-12.9 48 1.7-4 3.4-8 5-11.9-6.3 14.8-14.4 28.8-24.1 41.6 2.6-3.4 5.2-6.7 7.8-10.1-10.2 13.1-21.9 24.9-35.1 35.1 3.4-2.6 6.7-5.2 10.1-7.8-12.8 9.8-26.7 17.8-41.6 24.1 4-1.7 8-3.4 11.9-5-15.4 6.4-31.5 10.7-48 12.9 4.4-.6 8.9-1.2 13.3-1.8-16.4 2.1-33 2.1-49.4 0 4.4.6 8.9 1.2 13.3 1.8-16.5-2.2-32.6-6.6-48-12.9 4 1.7 8 3.4 11.9 5-14.8-6.3-28.8-14.4-41.6-24.1 3.4 2.6 6.7 5.2 10.1 7.8-13.1-10.2-24.9-21.9-35.1-35.1 2.6 3.4 5.2 6.7 7.8 10.1-9.8-12.8-17.8-26.7-24.1-41.6 1.7 4 3.4 8 5 11.9-6.4-15.4-10.7-31.5-12.9-48 .6 4.4 1.2 8.9 1.8 13.3-2.1-16.4-2.1-33 0-49.4-.6 4.4-1.2 8.9-1.8 13.3 2.2-16.5 6.6-32.6 12.9-48-1.7 4-3.4 8-5 11.9 6.3-14.8 14.4-28.8 24.1-41.6-2.6 3.4-5.2 6.7-7.8 10.1 10.2-13.1 21.9-24.9 35.1-35.1-3.4 2.6-6.7 5.2-10.1 7.8 12.8-9.8 26.7-17.8 41.6-24.1-4 1.7-8 3.4-11.9 5 15.4-6.4 31.5-10.7 48-12.9-4.4.6-8.9 1.2-13.3 1.8 16.4-2.1 33-2.1 49.4 0-4.4-.6-8.9-1.2-13.3-1.8 16.5 2.2 32.6 6.6 48 12.9-4-1.7-8-3.4-11.9-5 14.8 6.3 28.8 14.4 41.6 24.1-3.4-2.6-6.7-5.2-10.1-7.8 6.6 5.1 12.8 10.5 18.7 16.4 9.1 9.1 22.5 14.6 35.4 14.6 12.3 0 26.9-5.4 35.4-14.6 8.7-9.5 15.2-22 14.6-35.4-.6-13.2-5.1-25.8-14.6-35.4-33.5-33.3-78-57.9-124.9-65.5-13.4-2.2-27-4-40.7-4.2-13.7-.2-27.1 1.5-40.7 3.4-23.3 3.2-45 10.9-66.3 20.8-21.5 10-41.3 24.3-58.6 40.4-17.7 16.2-33 35.8-44.6 56.6-11.3 20.2-20.2 42.6-24.9 65.3-4.7 22.9-7.1 46.8-4.8 70.1 1.4 13.8 3.2 27.7 6.6 41.1 3.4 13.3 8.5 25.7 13.8 38.3 9.4 22 22.8 41.5 38.3 59.6 30.6 35.7 74.3 62.1 120 73.3 44.8 11 94.3 9.8 137.8-6.6 13-4.9 25.9-10.4 38-17.2 12.1-6.8 23-15.1 33.9-23.7 19.2-15.1 35.2-34.1 48.7-54.4 25.6-38.6 39-86.8 38-133.1-1-46.4-15.3-94.2-42.9-131.9-8.3-11.3-16.9-22.3-26.8-32.3-9-9.1-22.6-14.6-35.4-14.6-12.3 0-26.9 5.4-35.4 14.6-8.7 9.5-15.2 22-14.6 35.4.6 13.3 5.1 25.7 14.7 35.4z"/>
  <path d="M461.8 595.1l41.3-41.3 99.1-99.1 119.9-119.9 103.6-103.6c16.8-16.8 33.7-33.3 50.3-50.3l.7-.7c9.1-9.1 14.6-22.5 14.6-35.4 0-12.3-5.4-26.9-14.6-35.4-9.5-8.7-22-15.2-35.4-14.6-13.3.6-25.8 5.1-35.4 14.6l-41.3 41.3-99.1 99.1-119.9 119.9L442 473.3c-16.8 16.8-33.7 33.3-50.3 50.3l-.7.7c-9.1 9.1-14.6 22.5-14.6 35.4 0 12.3 5.4 26.9 14.6 35.4 9.5 8.7 22 15.2 35.4 14.6 13.3-.6 25.8-5.1 35.4-14.6z"/>
  <path d="M751 235.1l44.9 44.9 71.6 71.6 16.5 16.5c9.1 9.1 22.5 14.6 35.4 14.6 12.3 0 26.9-5.4 35.4-14.6 8.7-9.5 15.2-22 14.6-35.4-.6-13.3-5.1-25.8-14.6-35.4l-44.9-44.9-71.6-71.6-16.5-16.5c-9.1-9.1-22.5-14.6-35.4-14.6-12.3 0-26.9 5.4-35.4 14.6-8.7 9.5-15.2 22-14.6 35.4.5 13.3 5 25.9 14.6 35.4zM648 338.1l84.1 84.1 12 12c9.1 9.1 22.5 14.6 35.4 14.6 12.3 0 26.9-5.4 35.4-14.6 8.7-9.5 15.2-22 14.6-35.4-.6-13.3-5.1-25.8-14.6-35.4l-84.1-84.1-12-12c-9.1-9.1-22.5-14.6-35.4-14.6-12.3 0-26.9 5.4-35.4 14.6-8.7 9.5-15.2 22-14.6 35.4.5 13.3 5 25.9 14.6 35.4z"/>
</svg>
