<svg xmlns:dc="http://purl.org/dc/elements/1.1/" xmlns:cc="http://creativecommons.org/ns#" xmlns:rdf="http://www.w3.org/1999/02/22-rdf-syntax-ns#" xmlns:svg="http://www.w3.org/2000/svg" xmlns="http://www.w3.org/2000/svg" xmlns:xlink="http://www.w3.org/1999/xlink" xmlns:sodipodi="http://sodipodi.sourceforge.net/DTD/sodipodi-0.dtd" width="147.91" height="156.85" viewBox="0 0 524.1 555.77" id="svg2" version="1.1" sodipodi:docname="cube_perfect.svg"><defs id="defs4"/><sodipodi:namedview id="base" pagecolor="#ffffff" bordercolor="#666666" borderopacity="1" showgrid="false" objecttolerance="20" showguides="true" fit-margin-top="0" fit-margin-left="0" fit-margin-right="0" fit-margin-bottom="0"/><metadata id="metadata7"><rdf:RDF><cc:Work rdf:about=""><dc:format>
          image/svg+xml
        </dc:format><dc:type rdf:resource="http://purl.org/dc/dcmitype/StillImage"/></cc:Work></rdf:RDF></metadata><g id="layer6" transform="translate(-27.702494,-491.57446)" display="inline"><g id="layer2" display="inline"><path d="m30.7 588.13 0 297.64 207.24 119.17 0-198.43-69.08-39.72 0-99.21z" id="path3354" style="fill:#33449d;stroke-linejoin:round;stroke-width:8;stroke:#000"/><path d="M30.7 588.13 299.35 494.57 506.59 613.74 330.05 675.22 260.97 635.5 168.86 667.57Z" id="path3357" style="fill:#ffeb01;stroke-linejoin:round;stroke-width:8;stroke:#000"/><path d="m237.94 1004.93 268.65-93.55 0-297.64-176.54 61.48 0 99.21-92.11 32.08z" id="path4159" style="fill:#ff1200;stroke-linejoin:round;stroke-width:8;stroke:#000"/><path d="m168.86 667.57 0 99.21 69.08 39.72 92.11-32.08 0-99.21-69.08-39.72z" id="path4244" style="fill:#c7c7c6;stroke-linejoin:round;stroke-width:8;stroke:#000"/></g><g id="layer3" display="inline"><path d="m130.49 943.14 0-99.21 38.38 22.07 0-99.21M130.49 843.93l-30.7-17.65 0-49.61-69.08-39.72M130.49 843.93l-30.7-17.65 0-49.61-69.08-39.72M130.49 843.93l-30.7-17.65 0-49.61-69.08-39.72M130.49 843.93l-30.7-17.65 0-49.61-69.08-39.72M130.49 843.93l-30.7-17.65 0-49.61-69.08-39.72M130.49 843.93l-30.7-17.65 0-49.61-69.08-39.72M307.02 980.88l0-70.87 130.49-45.44 0-148.82 69.08-24.06M437.51 786.62l-107.46 37.42 0-49.61M99.78 564.07l69.08 39.72 199.57-69.5M276.32 566.37l69.08 39.72-84.43 29.4" id="path4162" style="fill:none;stroke-width:8;stroke:#000"/><path d="m168.86 766.79 92.11-32.08 69.08 39.72M260.97 635.5l0 99.21M260.97 635.5l0 99.21M260.97 635.5l0 99.21M260.97 635.5l0 99.21M260.97 635.5l0 99.21M260.97 635.5l0 99.21" id="path4170" style="fill:none;stroke-width:8;stroke:#000"/></g></g><g id="layer7" display="inline"><path transform="translate(-27.702494,-491.57446)" id="path4212" d="M460.54 945.14 391.46 905.41m69.08 138.94 0-99.21 88.27-30.74" style="fill:none;stroke-linejoin:round;stroke-width:8;stroke:#000"/><path transform="translate(-27.702494,-491.57446)" d="m391.46 905.41 0 99.21 69.08 39.72 0-99.21z" id="path4246" style="fill:#33449d;stroke-linejoin:round;stroke-width:8;stroke:#000"/><path transform="translate(-27.702494,-491.57446)" d="m460.54 945.14 88.27-30.74 0 99.21-88.27 30.74z" id="path4248" style="fill:#ff1200;stroke-linejoin:round;stroke-width:8;stroke:#000"/><path transform="translate(-27.702494,-491.57446)" d="m391.46 905.41 88.27-30.74 69.08 39.72-88.27 30.74z" id="path4250" style="fill:#ffeb01;stroke-linejoin:round;stroke-width:8;stroke:#000"/></g></svg>